# ProBuilder 6.0.4
# https://unity3d.com/unity/features/worldbuilding/probuilder
# 11/5/2024 9:20:17 PM

mtllib ./Willow.mtl
o Willow

g Cube
v -442.3051 -31.2309 2.207862
v -444.0342 -31.2309 2.207862
v -442.3051 -30.61999 2.207862
v -444.0342 -30.61999 2.207862
v -444.0342 -31.2309 1.184698
v -444.0342 -30.61999 1.184698
v -442.3051 -31.2309 1.184698
v -442.3051 -30.61999 1.184698

vt 1.204895 -0.2808988
vt -0.524231 -0.2808988
vt 1.204895 0.3300078
vt -0.524231 0.3300078
vt 1.087862 -0.280899
vt 0.06469798 -0.280899
vt 1.087862 0.3300076
vt 0.06469798 0.3300076
vt 0.524231 -0.280899
vt -1.204895 -0.280899
vt 0.524231 0.3300076
vt -1.204895 0.3300076
vt -0.06469798 -0.280899
vt -1.087862 -0.280899
vt -0.06469798 0.3300076
vt -1.087862 0.3300076
vt -1.204895 1.087862
vt 0.524231 1.087862
vt -1.204895 0.06469798
vt 0.524231 0.06469798
vt 1.204895 0.06469798
vt -0.524231 0.06469798
vt 1.204895 1.087862
vt -0.524231 1.087862

vn 0 -1.95135E-07 1
vn -1 0 0
vn 0 0 -1
vn 1 0 0
vn 0 1 0
vn 0 -1 0

usemtl ProBuilder_Default_URP
f 3/3/1 4/4/1 2/2/1 1/1/1
f 4/7/2 6/8/2 5/6/2 2/5/2
f 6/11/3 8/12/3 7/10/3 5/9/3
f 8/15/4 3/16/4 1/14/4 7/13/4
f 8/19/5 6/20/5 4/18/5 3/17/5
f 1/23/6 2/24/6 5/22/6 7/21/6

